<svg width="249" height="92" viewBox="0 0 249 92" fill="none" xmlns="http://www.w3.org/2000/svg">
<path d="M55.92 9.64C47.28 1.12 35.28 0.999993 34.56 0.999993H3.72C1.8 0.999993 0.36 2.55999 0.36 4.35999V87.64C0.36 89.44 1.8 91 3.72 91C5.64 91 7.2 89.44 7.2 87.64V63.28H18.96C20.88 63.28 22.44 61.72 22.44 59.92C22.44 57.88 20.88 56.32 18.96 56.32H7.2V7.96H34.56C34.68 7.96 37.2 7.96 40.56 8.67999C44.88 9.87999 48.36 11.8 51.12 14.44C55.2 18.64 57.24 24.52 57.24 31.96C57.24 42.04 53.64 49.24 46.32 53.2C40.56 56.32 34.68 56.32 34.56 56.32H30.96C29.16 56.32 27.6 57.88 27.6 59.92C27.6 61.72 29.16 63.28 30.96 63.28H34.56C34.92 63.28 42 63.28 49.32 59.32C56.04 55.84 64.2 48.04 64.2 31.96C64.2 22.6 61.44 15.04 55.92 9.64ZM157.008 86.2L122.928 3.04C122.448 1.84 121.248 0.999993 119.808 0.999993C118.488 0.999993 117.168 1.84 116.688 3.04L82.2478 86.2C81.5278 88 82.3678 90.04 84.1678 90.76C84.6478 91 85.0078 91 85.4878 91C86.8078 91 88.0078 90.16 88.7278 88.96L119.808 13.48L150.648 88.96C151.368 90.64 153.408 91.48 155.088 90.76C156.888 90.04 157.728 88 157.008 86.2ZM131.928 66.76H107.448C105.528 66.76 103.968 65.2 103.968 63.28C103.968 61.36 105.528 59.8 107.448 59.8H131.928C133.848 59.8 135.408 61.36 135.408 63.28C135.408 65.2 133.848 66.76 131.928 66.76ZM173.478 5.8L207.438 88.84C208.038 90.16 209.238 91 210.558 91C212.118 91 213.318 90.16 213.798 88.84L247.998 5.8C248.838 4 247.998 1.95999 246.198 1.24C245.838 1.12 245.358 0.999993 244.998 0.999993C243.558 0.999993 242.358 1.84 241.758 3.15999L210.558 78.52L179.838 3.28C179.118 1.36 177.078 0.639997 175.398 1.24C173.598 1.95999 172.758 4 173.478 5.8Z" fill="url(#paint0_linear_524_25)"/>
<defs>
<linearGradient id="paint0_linear_524_25" x1="-3" y1="1" x2="254.632" y2="89.1515" gradientUnits="userSpaceOnUse">
<stop stop-color="#B44261"/>
<stop offset="1" stop-color="#5FCAA9"/>
</linearGradient>
</defs>
</svg>
